<?xml version="1.0" encoding="UTF-8"?><svg id="Layer_2" xmlns="http://www.w3.org/2000/svg" xmlns:xlink="http://www.w3.org/1999/xlink" viewBox="0 0 62.87 72.24"><defs><style>.cls-1{fill:url(#linear-gradient);}.cls-1,.cls-2,.cls-3,.cls-4,.cls-5,.cls-6,.cls-7,.cls-8,.cls-9,.cls-10,.cls-11,.cls-12{stroke-width:0px;}.cls-2{fill:url(#linear-gradient-6);}.cls-3{fill:#f2f6fd;}.cls-4{fill:url(#linear-gradient-11);}.cls-5{fill:url(#linear-gradient-5);}.cls-6{fill:url(#linear-gradient-2);}.cls-7{fill:url(#linear-gradient-7);}.cls-8{fill:url(#linear-gradient-3);}.cls-9{fill:url(#linear-gradient-9);}.cls-10{fill:url(#linear-gradient-8);}.cls-11{fill:url(#linear-gradient-10);}.cls-12{fill:url(#linear-gradient-4);}</style><linearGradient id="linear-gradient" x1="61.72" y1="19.1" x2="61.72" y2="18.16" gradientUnits="userSpaceOnUse"><stop offset="0" stop-color="#d97b66"/><stop offset="1" stop-color="#34638c"/></linearGradient><linearGradient id="linear-gradient-2" x1="31.44" y1="59.84" x2="31.44" y2="24.28" xlink:href="#linear-gradient"/><linearGradient id="linear-gradient-3" x1="58.6" y1="59.84" x2="58.6" y2="24.28" xlink:href="#linear-gradient"/><linearGradient id="linear-gradient-4" x1="4.28" y1="59.84" x2="4.28" y2="24.28" xlink:href="#linear-gradient"/><linearGradient id="linear-gradient-5" x1="42.81" y1="59.84" x2="42.81" y2="24.28" xlink:href="#linear-gradient"/><linearGradient id="linear-gradient-6" x1="11.96" y1="59.84" x2="11.96" y2="24.28" xlink:href="#linear-gradient"/><linearGradient id="linear-gradient-7" x1="14.84" y1="59.84" x2="14.84" y2="24.28" xlink:href="#linear-gradient"/><linearGradient id="linear-gradient-8" x1="20.06" y1="59.84" x2="20.06" y2="24.28" xlink:href="#linear-gradient"/><linearGradient id="linear-gradient-9" x1="31.44" y1="59.84" x2="31.44" y2="24.28" xlink:href="#linear-gradient"/><linearGradient id="linear-gradient-10" x1="50.91" y1="59.84" x2="50.91" y2="24.28" xlink:href="#linear-gradient"/><linearGradient id="linear-gradient-11" x1="48.04" y1="59.84" x2="48.04" y2="24.28" xlink:href="#linear-gradient"/></defs><g id="Layer_1-2"><path class="cls-3" d="M62.3,17.63L32.01.15c-.36-.2-.79-.2-1.15,0L.58,17.63c-.36.21-.58.59-.58,1,0,.04,0,34.98,0,35.01.01.39.23.75.57.96,0,0,30.28,17.48,30.28,17.48.36.21.8.21,1.15,0l30.28-17.48c.35-.21.57-.59.58-1V18.63c0-.41-.22-.79-.58-1Z"/><polygon class="cls-1" points="61.72 18.63 61.72 18.63 61.72 18.63 61.72 18.63"/><path class="cls-6" d="M14.38,20.45h34.11c1.53,0,2.25-1.88,1.12-2.91L32.56,2.15c-.63-.57-1.6-.57-2.24,0l-17.06,15.38c-1.13,1.02-.41,2.91,1.12,2.91Z"/><path class="cls-8" d="M61.72,41.46v-20.98c0-.59-.59-1-1.14-.78l-4.56,1.78c-.39.15-.61.57-.51.98l4.56,19.2c.23.97,1.66.8,1.66-.19Z"/><path class="cls-12" d="M2.81,41.65l4.56-19.2c.1-.41-.12-.82-.51-.98l-4.56-1.78c-.55-.21-1.14.19-1.14.78v20.98c0,1,1.43,1.16,1.66.19Z"/><path class="cls-5" d="M32.01,62.58v6.72c0,.65.7,1.05,1.26.73l19.92-11.5c.84-.48.33-1.77-.62-1.54l-19.92,4.78c-.38.09-.64.43-.64.82Z"/><path class="cls-2" d="M8.43,20.35l12.32-11.12c.75-.67-.11-1.85-.98-1.35L3.31,17.39c-.61.35-.54,1.25.11,1.51l4.14,1.61c.3.12.63.05.87-.16Z"/><path class="cls-7" d="M27.95,57.14L10.47,26.86c-.75-1.31-2.72-1.02-3.07.45L1.54,51.98c-.21.9.34,1.79,1.23,2.01l23.34,5.61c1.43.34,2.57-1.19,1.83-2.46Z"/><path class="cls-10" d="M30.86,69.3v-6.72c0-.39-.27-.73-.64-.82l-19.92-4.78c-.94-.23-1.46,1.06-.62,1.54l19.92,11.5c.56.32,1.26-.08,1.26-.73Z"/><path class="cls-9" d="M10.36,24.37l19.47,33.72c.71,1.23,2.49,1.23,3.2,0l19.47-33.72c.71-1.23-.18-2.78-1.6-2.78H11.97c-1.42,0-2.31,1.54-1.6,2.78Z"/><path class="cls-11" d="M55.32,20.51l4.14-1.61c.66-.26.72-1.16.11-1.51l-16.46-9.5c-.87-.5-1.73.68-.98,1.35l12.32,11.12c.24.21.57.27.87.16Z"/><path class="cls-4" d="M52.4,26.86l-17.48,30.28c-.73,1.27.41,2.8,1.83,2.46l23.34-5.61c.89-.21,1.45-1.11,1.23-2.01l-5.87-24.67c-.35-1.47-2.31-1.76-3.07-.45Z"/><polygon class="cls-3" points="33.34 39.62 33.34 43.02 32.21 43.02 32.21 46.42 30.75 46.42 30.75 43.02 29.61 43.02 29.61 39.62 26.54 39.62 26.54 43.82 27.67 43.82 27.67 47.22 28.81 47.22 28.81 49.49 29.94 49.49 29.94 51.76 33.01 51.76 33.01 49.49 34.15 49.49 34.15 47.22 35.28 47.22 35.28 43.82 36.41 43.82 36.41 39.62 33.34 39.62"/><polygon class="cls-3" points="43.49 25.94 43.49 24.81 42.36 24.81 42.36 23.67 38.15 23.67 38.15 24.81 36.69 24.81 36.69 23.67 32.49 23.67 32.49 24.81 31.35 24.81 31.35 25.94 30.22 25.94 30.22 35.82 31.03 35.82 31.03 35.25 32.16 35.25 32.16 34.68 33.29 34.68 33.29 27.88 34.16 27.88 34.16 26.75 35.02 26.75 35.02 27.88 35.89 27.88 35.89 35.82 36.73 35.82 36.73 35.25 37.86 35.25 37.86 34.68 38.96 34.68 38.96 27.88 39.83 27.88 39.83 26.75 40.68 26.75 40.68 27.88 41.55 27.88 41.55 35.82 42.36 35.82 42.36 35.25 43.49 35.25 43.49 34.68 44.63 34.68 44.63 25.94 43.49 25.94"/><path class="cls-3" d="M27.67,25.94v-1.13h-1.13v-1.13h-5.3v1.13h-1.17v1.17h-1.13v9.84h7.61v-1.13h1.13v-1.13h1.13v-7.61h-1.13ZM25.73,31.61h-1.13v1.13h-2.59v-5.99h2.59v1.13h1.13v3.73Z"/></g></svg>